<?xml version="1.0" encoding="UTF-8" standalone="no"?>
<!-- Created with Inkscape (http://www.inkscape.org/) -->

<svg
   version="1.1"
   id="svg2"
   xml:space="preserve"
   width="263.98666"
   height="185.99068"
   viewBox="0 0 263.98666 185.99068"
   sodipodi:docname="mysql.ai"
   xmlns:inkscape="http://www.inkscape.org/namespaces/inkscape"
   xmlns:sodipodi="http://sodipodi.sourceforge.net/DTD/sodipodi-0.dtd"
   xmlns="http://www.w3.org/2000/svg"
   xmlns:svg="http://www.w3.org/2000/svg"><defs
     id="defs6"><clipPath
       clipPathUnits="userSpaceOnUse"
       id="clipPath16"><path
         d="M 0,139.493 H 197.99 V 0 H 0 Z"
         id="path14" /></clipPath></defs><sodipodi:namedview
     id="namedview4"
     pagecolor="#ffffff"
     bordercolor="#666666"
     borderopacity="1.0"
     inkscape:pageshadow="2"
     inkscape:pageopacity="0.0"
     inkscape:pagecheckerboard="0" /><g
     id="g8"
     inkscape:groupmode="layer"
     inkscape:label="mysql"
     transform="matrix(1.3333333,0,0,-1.3333333,0,185.99067)"><g
       id="g10"><g
         id="g12"
         clip-path="url(#clipPath16)"><g
           id="g18"
           transform="translate(51.9394,24.3102)"><path
             d="M 0,0 H -6.483 C -6.712,10.942 -7.344,21.232 -8.377,30.872 H -8.434 L -18.305,0 h -4.936 l -9.812,30.872 H -33.11 C -33.838,21.614 -34.296,11.324 -34.486,0 h -5.911 c 0.381,13.772 1.337,26.684 2.868,38.735 h 8.035 l 9.353,-28.462 h 0.058 l 9.411,28.462 h 7.689 C -1.3,24.62 -0.306,11.706 0,0"
             style="fill:#5d87a1;fill-opacity:1;fill-rule:nonzero;stroke:none"
             id="path20" /></g><g
           id="g22"
           transform="translate(80.0575,52.8883)"><path
             d="m 0,0 c -2.64,-14.324 -6.122,-24.734 -10.444,-31.229 -3.369,-5.003 -7.058,-7.505 -11.076,-7.505 -1.071,0 -2.391,0.323 -3.959,0.963 v 3.454 c 0.766,-0.113 1.665,-0.172 2.698,-0.172 1.874,0 3.385,0.517 4.534,1.551 1.376,1.26 2.064,2.676 2.064,4.246 0,1.072 -0.537,3.27 -1.606,6.597 L -24.904,0 h 6.369 l 5.106,-16.524 c 1.148,-3.752 1.626,-6.372 1.435,-7.865 2.793,7.46 4.744,15.59 5.854,24.389 z"
             style="fill:#5d87a1;fill-opacity:1;fill-rule:nonzero;stroke:none"
             id="path24" /></g><g
           id="g26"
           transform="translate(166.3622,24.3102)"><path
             d="m 0,0 h -18.42 v 38.735 h 6.198 V 4.765 L 0,4.765 Z"
             style="fill:#f8981d;fill-opacity:1;fill-rule:nonzero;stroke:none"
             id="path28" /></g><g
           id="g30"
           transform="translate(120.0546,32.0592)"><path
             d="m 0,0 c -1.569,2.524 -2.354,6.576 -2.354,12.163 0,9.755 2.965,14.635 8.894,14.635 3.1,0 5.375,-1.167 6.83,-3.499 1.568,-2.527 2.353,-6.543 2.353,-12.052 0,-9.832 -2.966,-14.75 -8.895,-14.75 C 3.73,-3.503 1.453,-2.338 0,0 m 23.068,-8.684 -7.12,3.511 c 0.634,0.521 1.237,1.081 1.782,1.731 3.022,3.553 4.535,8.814 4.535,15.778 0,12.814 -5.031,19.225 -15.092,19.225 -4.935,0 -8.78,-1.625 -11.535,-4.879 -3.024,-3.558 -4.533,-8.798 -4.533,-15.723 0,-6.81 1.337,-11.805 4.015,-14.978 2.449,-2.868 6.141,-4.303 11.077,-4.303 1.843,0 3.535,0.226 5.072,0.68 l 9.271,-5.395 z"
             style="fill:#f8981d;fill-opacity:1;fill-rule:evenodd;stroke:none"
             id="path32" /></g><g
           id="g34"
           transform="translate(108.4579,35.0465)"><path
             d="m 0,0 c 0,-3.285 -1.207,-5.981 -3.613,-8.092 -2.408,-2.1 -5.643,-3.154 -9.695,-3.154 -3.788,0 -7.461,1.212 -11.017,3.617 l 1.664,3.327 c 3.06,-1.53 5.831,-2.294 8.318,-2.294 2.333,0 4.158,0.519 5.48,1.545 1.318,1.033 2.108,2.474 2.108,4.302 0,2.301 -1.604,4.267 -4.547,5.915 -2.718,1.491 -8.147,4.604 -8.147,4.604 -2.943,2.146 -4.417,4.45 -4.417,8.244 0,3.137 1.099,5.673 3.297,7.603 2.202,1.934 5.043,2.901 8.522,2.901 3.596,0 6.865,-0.96 9.811,-2.873 l -1.496,-3.324 c -2.52,1.069 -5.005,1.605 -7.456,1.605 -1.987,0 -3.519,-0.478 -4.587,-1.438 -1.075,-0.952 -1.738,-2.177 -1.738,-3.67 0,-2.294 1.639,-4.284 4.664,-5.965 2.752,-1.492 8.315,-4.665 8.315,-4.665 C -1.508,6.046 0,3.763 0,0"
             style="fill:#f8981d;fill-opacity:1;fill-rule:nonzero;stroke:none"
             id="path36" /></g><g
           id="g38"
           transform="translate(174.1396,76.0211)"><path
             d="m 0,0 c -3.746,0.094 -6.646,-0.28 -9.08,-1.311 -0.702,-0.28 -1.823,-0.28 -1.92,-1.169 0.377,-0.375 0.422,-0.982 0.752,-1.5 0.561,-0.935 1.541,-2.197 2.433,-2.854 0.982,-0.749 1.965,-1.495 2.997,-2.15 1.823,-1.128 3.883,-1.781 5.659,-2.905 1.033,-0.654 2.059,-1.496 3.093,-2.2 0.512,-0.374 0.838,-0.983 1.495,-1.215 v 0.142 c -0.329,0.42 -0.422,1.028 -0.747,1.499 -0.468,0.465 -0.937,0.889 -1.406,1.354 -1.358,1.826 -3.045,3.415 -4.866,4.726 -1.499,1.032 -4.777,2.437 -5.383,4.163 0,0 -0.048,0.05 -0.094,0.096 1.029,0.094 2.249,0.469 3.23,0.754 1.589,0.42 3.04,0.325 4.678,0.745 0.75,0.188 1.499,0.424 2.251,0.654 v 0.424 C 2.245,0.094 1.64,1.219 0.75,2.014 -1.635,4.072 -4.259,6.083 -6.973,7.77 c -1.453,0.937 -3.325,1.543 -4.87,2.34 -0.558,0.282 -1.494,0.42 -1.823,0.891 -0.843,1.029 -1.312,2.385 -1.92,3.603 -1.355,2.572 -2.669,5.425 -3.837,8.145 -0.842,1.824 -1.357,3.647 -2.387,5.334 -4.823,7.957 -10.063,12.775 -18.113,17.503 -1.732,0.985 -3.791,1.406 -5.989,1.92 -1.172,0.05 -2.341,0.14 -3.511,0.186 -0.75,0.329 -1.5,1.22 -2.154,1.641 -2.669,1.684 -9.546,5.333 -11.513,0.514 -1.263,-3.044 1.872,-6.038 2.949,-7.583 0.795,-1.076 1.827,-2.294 2.385,-3.51 0.328,-0.796 0.422,-1.639 0.751,-2.481 0.748,-2.059 1.449,-4.353 2.434,-6.272 0.513,-0.983 1.074,-2.015 1.729,-2.899 0.378,-0.519 1.031,-0.749 1.172,-1.595 -0.653,-0.934 -0.704,-2.338 -1.078,-3.509 -1.684,-5.29 -1.029,-11.842 1.358,-15.726 0.747,-1.169 2.528,-3.745 4.915,-2.759 2.106,0.841 1.638,3.508 2.247,5.847 0.139,0.566 0.045,0.937 0.326,1.311 v -0.095 c 0.654,-1.308 1.311,-2.569 1.92,-3.884 1.452,-2.291 3.977,-4.678 6.086,-6.268 1.12,-0.846 2.009,-2.294 3.414,-2.811 v 0.142 h -0.093 c -0.281,0.42 -0.701,0.608 -1.076,0.934 -0.843,0.843 -1.777,1.873 -2.435,2.809 -1.965,2.62 -3.699,5.523 -5.24,8.519 -0.751,1.454 -1.404,3.044 -2.014,4.494 -0.28,0.558 -0.28,1.404 -0.749,1.683 -0.704,-1.028 -1.73,-1.919 -2.245,-3.178 -0.89,-2.015 -0.982,-4.496 -1.312,-7.071 -0.187,-0.049 -0.093,0 -0.187,-0.092 -1.496,0.374 -2.011,1.917 -2.574,3.224 -1.404,3.327 -1.64,8.663 -0.421,12.501 0.326,0.981 1.734,4.069 1.17,5.005 -0.282,0.894 -1.218,1.403 -1.732,2.108 -0.607,0.89 -1.266,2.011 -1.683,2.995 -1.124,2.621 -1.689,5.524 -2.902,8.144 -0.562,1.218 -1.546,2.483 -2.339,3.604 -0.892,1.264 -1.873,2.152 -2.577,3.649 -0.232,0.516 -0.56,1.358 -0.187,1.918 0.093,0.375 0.282,0.517 0.657,0.611 0.606,0.514 2.339,-0.139 2.946,-0.421 1.733,-0.699 3.184,-1.358 4.633,-2.339 0.656,-0.47 1.359,-1.358 2.199,-1.595 h 0.985 c 1.497,-0.324 3.183,-0.09 4.589,-0.513 2.478,-0.795 4.724,-1.966 6.738,-3.229 6.129,-3.886 11.185,-9.41 14.6,-16.008 0.562,-1.074 0.798,-2.058 1.312,-3.179 0.983,-2.299 2.201,-4.639 3.182,-6.883 0.982,-2.2 1.921,-4.444 3.326,-6.272 0.7,-0.982 3.51,-1.496 4.773,-2.012 0.934,-0.42 2.387,-0.795 3.23,-1.308 1.592,-0.982 3.18,-2.107 4.68,-3.185 C -2.481,2.106 -0.141,0.937 0,0"
             style="fill:#5d87a1;fill-opacity:1;fill-rule:evenodd;stroke:none"
             id="path40" /></g><g
           id="g42"
           transform="translate(126.4003,116.6945)"><path
             d="m 0,0 c -0.794,0 -1.354,-0.095 -1.919,-0.235 v -0.094 h 0.092 c 0.378,-0.747 1.033,-1.265 1.498,-1.92 0.377,-0.749 0.704,-1.495 1.078,-2.244 0.047,0.045 0.092,0.094 0.092,0.094 0.659,0.466 0.986,1.215 0.986,2.34 C 1.545,-1.73 1.5,-1.405 1.265,-1.076 0.984,-0.609 0.375,-0.375 0,0"
             style="fill:#5d87a1;fill-opacity:1;fill-rule:evenodd;stroke:none"
             id="path44" /></g><g
           id="g46"
           transform="translate(170.7861,24.3141)"><path
             d="M 0,0 H 1.026 V 3.94 H 2.371 V 4.746 H -1.397 V 3.94 L 0,3.94 Z M 7.814,0 H 8.782 V 4.746 H 7.327 L 6.142,1.511 4.851,4.746 H 3.448 V 0 H 4.364 V 3.611 H 4.417 L 5.767,0 h 0.699 l 1.348,3.611 z"
             style="fill:#f8981d;fill-opacity:1;fill-rule:nonzero;stroke:none"
             id="path48" /></g></g></g></g></svg>
